<?xml version="1.0"?>
<svg xmlns="http://www.w3.org/2000/svg" id="object" viewBox="0 0 32 32" width="512" height="512"><path d="M31,6a5,5,0,0,0-1.44-3.5s0,0,0,0l0,0A5,5,0,0,0,26,1H6A5,5,0,0,0,1,6V26a5,5,0,0,0,1.44,3.5s0,0,0,0l0,0A5,5,0,0,0,6,31H26a5,5,0,0,0,3.5-1.44l0,0s0,0,0,0A5,5,0,0,0,31,26ZM17.41,16,28.7,4.71A3,3,0,0,1,29,6V26a3,3,0,0,1-.3,1.29ZM3,6A3,3,0,0,1,6,3H26a3,3,0,0,1,1.29.3l-24,24A3,3,0,0,1,3,26ZM6,29a3,3,0,0,1-1.29-.3L16,17.41,27.29,28.7A3,3,0,0,1,26,29Z"/><path d="M9.31,16.73a1,1,0,0,0,1.38,0C11.41,16,15,12.51,15,10A5,5,0,0,0,5,10C5,12.51,8.59,16,9.31,16.73ZM10,7a3,3,0,0,1,3,3c0,1.05-1.58,3.11-3,4.59C8.58,13.11,7,11.05,7,10A3,3,0,0,1,10,7Z"/></svg>
