<svg id="Layer_1" enable-background="new 0 0 512 512" viewBox="0 0 512 512" xmlns="http://www.w3.org/2000/svg"><g id="XMLID_102_"><path id="XMLID_104_" d="m193.1 160.2c1.6-1.3 2.3-3.2 2.3-5.7s-.8-4.5-2.3-6-3.7-2.3-6.5-2.4h-.4-11.1v16.1h11.3c3 0 5.2-.7 6.7-2z"/><path id="XMLID_200_" d="m41.6 201h428.8c3.5 0 6.3-2.8 6.3-6.3v-23.3c0-2-.9-3.9-2.5-5.1l-214.5-159.1c-2.2-1.7-5.3-1.7-7.5 0l-214.3 159.2c-1.6 1.2-2.5 3.1-2.5 5.1v23.3c-.1 3.4 2.7 6.2 6.2 6.2zm264.2-82.2h8.3v21.2h3.3l16.2-21.2h9.8l.1.2-18.8 23.5 20.3 26.3h-10.5l-16.3-21.6h-4.1v21.6h-8.3zm-49.5 0h8.3l22.1 36 .2-.1v-36h8.3v50h-8.2l-22.1-36-.2.1v36h-8.3v-50zm-31.4 0h7.9l17.2 50h-8.6l-3.8-11.7h-17.6l-3.8 11.7h-8.6zm-58 0h16.4c5.5 0 9.8 1.1 12.9 3.4s4.7 5.7 4.7 10.2c0 2.2-.6 4.2-1.9 5.9-1.2 1.8-3 3.1-5.2 4 3.2.5 5.7 1.9 7.4 4.2 1.7 2.2 2.6 4.9 2.6 7.9 0 4.7-1.5 8.3-4.6 10.7s-7.3 3.7-12.7 3.7h-19.6z"/><path id="XMLID_206_" d="m190.3 138c1.5-1.2 2.2-3 2.2-5.2 0-2.5-.8-4.3-2.4-5.5s-3.9-1.8-6.9-1.8h-8v14.4h8.9c2.6 0 4.7-.6 6.2-1.9z"/><path id="XMLID_207_" d="m229 130.5h-.2l-6.5 19.7h13.1z"/><path id="XMLID_208_" d="m482.6 477.4h-453.2c-3.5 0-6.3 2.8-6.3 6.3v16c0 3.5 2.8 6.3 6.3 6.3h453.2c3.5 0 6.3-2.8 6.3-6.3v-16c0-3.5-2.8-6.3-6.3-6.3z"/><path id="XMLID_209_" d="m45.5 443.1v16c0 3.5 2.8 6.3 6.3 6.3h408.4c3.5 0 6.3-2.8 6.3-6.3v-16c0-3.5-2.8-6.3-6.3-6.3h-408.4c-3.5 0-6.3 2.8-6.3 6.3z"/><path id="XMLID_210_" d="m381.4 404.4c-1.8 0-3.3 1.5-3.3 3.3v9.5c0 1.8 1.5 3.3 3.3 3.3h56.8c1.8 0 3.3-1.5 3.3-3.3v-9.5c0-1.8-1.5-3.3-3.3-3.3h-5.6v-168.8h5.6c1.8 0 3.3-1.5 3.3-3.3v-9.5c0-1.8-1.5-3.3-3.3-3.3h-56.8c-1.8 0-3.3 1.5-3.3 3.3v9.5c0 1.8 1.5 3.3 3.3 3.3h5.6v168.9h-5.6z"/><path id="XMLID_211_" d="m278.9 404.4c-1.8 0-3.3 1.5-3.3 3.3v9.5c0 1.8 1.5 3.3 3.3 3.3h56.8c1.8 0 3.3-1.5 3.3-3.3v-9.5c0-1.8-1.5-3.3-3.3-3.3h-5.6v-168.8h5.6c1.8 0 3.3-1.5 3.3-3.3v-9.5c0-1.8-1.5-3.3-3.3-3.3h-56.8c-1.8 0-3.3 1.5-3.3 3.3v9.5c0 1.8 1.5 3.3 3.3 3.3h5.6v168.9h-5.6z"/><path id="XMLID_212_" d="m176.3 404.4c-1.8 0-3.3 1.5-3.3 3.3v9.5c0 1.8 1.5 3.3 3.3 3.3h56.8c1.8 0 3.3-1.5 3.3-3.3v-9.5c0-1.8-1.5-3.3-3.3-3.3h-5.6v-168.8h5.6c1.8 0 3.3-1.5 3.3-3.3v-9.5c0-1.8-1.5-3.3-3.3-3.3h-56.8c-1.8 0-3.3 1.5-3.3 3.3v9.5c0 1.8 1.5 3.3 3.3 3.3h5.6v168.9h-5.6z"/><path id="XMLID_213_" d="m73.7 404.4c-1.8 0-3.3 1.5-3.3 3.3v9.5c0 1.8 1.5 3.3 3.3 3.3h56.8c1.8 0 3.3-1.5 3.3-3.3v-9.5c0-1.8-1.5-3.3-3.3-3.3h-5.6v-168.8h5.6c1.8 0 3.3-1.5 3.3-3.3v-9.5c0-1.8-1.5-3.3-3.3-3.3h-56.8c-1.8 0-3.3 1.5-3.3 3.3v9.5c0 1.8 1.5 3.3 3.3 3.3h5.6v168.9h-5.6z"/></g></svg>