<svg id="Layer_1" enable-background="new 0 0 25 24" viewBox="0 0 25 24" xmlns="http://www.w3.org/2000/svg"><path id="_x31_" d="m22 10.5h-19c-1.4 0-2.5 1.1-2.5 2.5v7c0 .3.2.5.5.5s.5-.2.5-.5v-1.5h22v1.5c0 .3.2.5.5.5s.5-.2.5-.5v-7c0-1.4-1.1-2.5-2.5-2.5zm1.5 7h-22v-1h22zm-20.5-8h2.5c-.2 0-.3-.1-.4-.2s-.1-.3-.1-.4l.3-1.2c.2-.7.8-1.2 1.5-1.2h3.2c.8 0 1.5.7 1.5 1.5v1c0 .3-.2.5-.5.5h3c-.3 0-.5-.2-.5-.5v-1c0-.8.7-1.5 1.5-1.5h3.2c.7 0 1.3.5 1.5 1.1l.3 1.3c0 .1 0 .3-.1.4s-.2.2-.4.2h2.5c.3 0 .5-.2.5-.5v-3c0-1.4-1.1-2.5-2.5-2.5h-15c-1.4 0-2.5 1.1-2.5 2.5v3c0 .3.2.5.5.5z"/></svg>