<svg fill="none" height="25" viewBox="0 0 24 25" width="24" xmlns="http://www.w3.org/2000/svg" xmlns:xlink="http://www.w3.org/1999/xlink"><clipPath id="clip0_253_26312"><path d="m0 .246h24v24h-24z"/></clipPath><g clip-path="url(#clip0_253_26312)"><path d="m10.5 7.74609c.276 0 .5-.224.5-.5v-1c0-3.033-2.467-5.499996-5.5-5.499996s-5.5 2.466996-5.5 5.499996v17.00001c0 .276.224.5.5.5s.5-.224.5-.5v-10.706l8.629-4.79401zm-9.5 3.65001v-3.65001h6.571zm22.5.35c-.276 0-.5.224-.5.5v-1c0-1.37801-1.122-2.50001-2.5-2.50001h-8c-1.378 0-2.5 1.122-2.5 2.50001v1c0-.276-.224-.5-.5-.5s-.5.224-.5.5v4c0 .276.224.5.5.5s.5-.224.5-.5v6c0 .276.224.5.5.5h.5c0 .551.449 1 1 1h1c.551 0 1-.449 1-1h5c0 .551.449 1 1 1h1c.551 0 1-.449 1-1h.5c.276 0 .5-.224.5-.5v-6c0 .276.224.5.5.5s.5-.224.5-.5v-4c0-.276-.224-.5-.5-.5zm-10-1h6c.276 0 .5.224.5.5s-.224.5-.5.5h-6c-.276 0-.5-.224-.5-.5s.224-.5.5-.5zm7.5 8.5c0 .276-.224.5-.5.5h-8c-.276 0-.5-.224-.5-.5v-6c0-.276.224-.5.5-.5h8c.276 0 .5.224.5.5zm-15.5 1.5h-2c-.827 0-1.5.673-1.5 1.5v1c0 .276.224.5.5.5s.5-.224.5-.5v-.5h3v.5c0 .276.224.5.5.5s.5-.224.5-.5v-1c0-.827-.673-1.5-1.5-1.5z" fill="#000"/></g></svg>