<svg id="Layer_1" enable-background="new 0 0 100 100" viewBox="0 0 100 100" xmlns="http://www.w3.org/2000/svg"><path d="m73.0719604 62.2557945c8.7050705 1.6491661 15.7160034 5.2905846 22.4409332 11.0546227 1.487381 1.2748413 2.2096558 3.2046356 1.9266739 5.0705261-.6953659 4.5849991-1.700325 8.8909454-3.1710892 12.8600082-1.5400925 4.1561661-6.084343 6.85746-11.0617523 6.1452637-21.0551987-3.0126724-39.8334007-11.5730591-54.4266624-26.1663208-14.5938711-14.5938721-23.1536002-33.3714561-26.1662843-54.4266224-.7122059-4.9774256 1.9890845-9.5216803 6.1452472-11.0617733 3.9690666-1.4707665 8.2750196-2.475719 12.8599958-3.1710601 1.8658943-.2829797 3.7956944.4392986 5.0705318 1.9266825 5.7640743 6.7249179 9.405508 13.7358265 11.0546322 22.4408989.3319855 1.7523499-.1726837 3.5397415-1.3547592 4.7764606-3.0957375 3.2388744-5.1578541 4.7847195-8.6409149 9.0266781-.9390965 1.1437111-1.0449409 2.888382-.1837158 4.3721848 3.2566185 5.6104851 7.2445793 10.8162193 11.8800888 15.4517288 4.6374283 4.6374245 9.8358841 8.6383171 15.4551468 11.888485 1.4820671.8572159 3.2226677.7487717 4.3642006-.1883621 4.2454567-3.4852982 5.7912254-5.5478363 9.0312538-8.6446533 1.2367249-1.1820713 3.0241166-1.6867405 4.776474-1.3547474z"/></svg>