<svg id="Layer_1" enable-background="new 0 0 512 512" height="512" viewBox="0 0 512 512" width="512" xmlns="http://www.w3.org/2000/svg"><path d="m256 0c-105.6 0-191.5 85.9-191.5 191.5 0 34.4 16.2 77.8 49.4 132.7 27.6 45.6 61.8 90.9 91.9 130.8 13.9 18.4 27 35.8 37.1 50.2 3 4.3 7.9 6.8 13.1 6.8s10.1-2.5 13.1-6.8c10.1-14.4 23.2-31.8 37.1-50.2 30.1-39.9 64.2-85.2 91.9-130.8 33.2-54.9 49.4-98.3 49.4-132.7 0-105.6-85.9-191.5-191.5-191.5zm0 280c-48.8 0-88.5-39.7-88.5-88.5s39.7-88.5 88.5-88.5 88.5 39.7 88.5 88.5-39.7 88.5-88.5 88.5z"/></svg>