<svg height="512" viewBox="0 0 32 32" width="512" xmlns="http://www.w3.org/2000/svg"><g id="_x30_2"><path d="m16.000061 4c-1.6542969 0-3 1.3457031-3 3v1h-1c-.2866211 0-.5600586.1230469-.7495117.3383789-.1899414.2148438-.2783203.5009766-.2426758.7856445l1 8c.0625.5004883.487793.8759766.9921875.8759766h6c.5043945 0 .9296875-.3754883.9921875-.8759766l1-8c.0356445-.284668-.0527344-.5708008-.2426758-.7856445-.1894531-.215332-.4628906-.3383789-.7495117-.3383789h-1v-1c0-1.6542969-1.3457031-3-3-3zm-1 3c0-.5512695.4487305-1 1-1s1 .4487305 1 1v1h-2z"/><path d="m11 21h4.5v9h-4.5z"/><path d="m16.5 21h4.5v9h-4.5z"/><path d="m29 7h-9c.5742188 0 1.1210938.2470703 1.5004883.6777344.378418.4282227.5551758 1.0009766.4838867 1.5703125l-1 8c-.1245117.9985351-.9775391 1.7519531-1.984375 1.7519531h-6c-1.0068359 0-1.8598633-.753418-1.984375-1.7519531l-1-8c-.0712891-.5693359.1054688-1.1420898.4858398-1.5722656.3774415-.428711.9243165-.6757813 1.4985352-.6757813h-9c-.5522461 0-1 .4477539-1 1v21c0 .5522461.4477539 1 1 1h7v-9c0-.5523071.4476929-1 1-1h10c.5523071 0 1 .4476929 1 1v9h7c.5522461 0 1-.4477539 1-1v-21c0-.5522461-.4477539-1-1-1zm-20 16c0 .5523071-.4476929 1-1 1h-4c-.5523071 0-1-.4476929-1-1v-2c0-.5523071.4476929-1 1-1h4c.5523071 0 1 .4476929 1 1zm20 0c0 .5523071-.4476929 1-1 1h-4c-.5523071 0-1-.4476929-1-1v-2c0-.5523071.4476929-1 1-1h4c.5523071 0 1 .4476929 1 1z"/><path d="m16 3c1.8582764 0 3.4107056 1.2797241 3.8579712 3h6.1420288v-3c0-.5523071-.4476929-1-1-1h-18c-.5523071 0-1 .4476929-1 1v3h6.1420288c.4472656-1.7202759 1.9996948-3 3.8579712-3z"/></g></svg>