<svg id="Glyph" enable-background="new 0 0 32 32" height="512" viewBox="0 0 32 32" width="512" xmlns="http://www.w3.org/2000/svg"><path id="XMLID_868_" d="m28 16.251v-6.251c0-4.411-3.589-8-8-8h-8c-4.411 0-8 3.589-8 8v6.251c0 3.291 1.736 6.475 5.336 8.227l-3.118 3.897c-.345.431-.274 1.061.156 1.405.433.346 1.061.274 1.406-.156l3.487-4.359c1.543.506 3.142.762 4.74.762 1.596 0 3.19-.255 4.725-.759l3.485 4.357c.345.43.974.502 1.406.156.431-.345.501-.974.156-1.405l-3.117-3.896c3.624-1.772 5.338-4.956 5.338-8.229zm-16 5.749c-1.105 0-2-.895-2-2s.895-2 2-2 2 .895 2 2-.895 2-2 2zm8 0c-1.105 0-2-.895-2-2s.895-2 2-2 2 .895 2 2-.895 2-2 2zm4-9.004c0 .4-.238.762-.606.919-2.731 1.17-4.421 2.085-7.394 2.085-2.972 0-4.661-.914-7.394-2.085-.368-.158-.606-.519-.606-.919v-2.996c0-2.206 1.794-4 4-4h8c2.206 0 4 1.794 4 4z"/></svg>