<svg id="Layer_1" enable-background="new 0 0 510.001 510.001" height="512" viewBox="0 0 510.001 510.001" width="512" xmlns="http://www.w3.org/2000/svg"><g><path d="m480 329.794h-30v30h-30v-30h-30v30h-30v-30h-30v30h-30v-30h-30v30h-30v30h30v45h-90v-106.452c-9.652 1.87-19.672 2.001-30 0v106.452h-60v-61.42c-9.752 1.864-19.857 1.933-30-.032v61.452h-60v75h510v-75h-30v-45h30v-30h-30zm-180 105v-45h30v45zm60 0v-45h30v45zm90 0h-30v-45h30z"/><path d="m307.5 134.794h162c22.332 0 40.5-18.169 40.5-40.5.132-24.265-21.268-42.592-45.117-40.5-25.311-71.468-127.479-71.43-152.767 0-56.812-2.798-61.175 78.086-4.616 81z"/><path d="m75 344.794c18.044 0 34.775-9.844 47.851-26.945-62.227-37.115-77.142-141.786-49.52-213.023-97.669 5.953-96.852 236.887 1.669 239.968z"/><path d="m165 299.794c42.056 0 75-52.71 75-120-2.458-159.078-147.551-159.059-150 .001 0 67.288 32.944 119.999 75 119.999z"/></g></svg>