<svg id="Layer_1" enable-background="new 0 0 32 32" height="32" viewBox="0 0 32 32" width="32" xmlns="http://www.w3.org/2000/svg"><g><g><path d="m7.248 23.586h17.506c1.314 0 2.381-1.064 2.381-2.379v-14.379c0-3.287-2.664-5.951-5.951-5.951h-10.368c-3.285 0-5.949 2.664-5.949 5.951v14.379c0 1.314 1.067 2.379 2.381 2.379zm15.199-3.272c-.877 0-1.588-.711-1.588-1.588 0-.875.711-1.586 1.588-1.586s1.586.711 1.586 1.586c0 .878-.709 1.588-1.586 1.588zm1.586-13.289v6.545h-6.783v-6.545zm-16.064 0h6.781v6.545h-6.781zm1.586 10.116c.877 0 1.586.711 1.586 1.586 0 .877-.709 1.588-1.586 1.588s-1.586-.711-1.586-1.588c0-.875.709-1.586 1.586-1.586z"/></g><g><path d="m25.254 31.123h2.992l-4.396-5.752h-2.991l1.194 1.563h-12.106l1.194-1.563h-2.991l-4.394 5.752h2.99l1.545-2.023h15.418z"/></g></g></svg>