<svg id="School" enable-background="new 0 0 64 64" viewBox="0 0 64 64" xmlns="http://www.w3.org/2000/svg"><path d="m12.8183 37.26465v4.80915c0 .40223-.32913.71306-.71317.71306h-2.57823c-.40234 0-.71317-.31083-.71317-.71306v-4.80915c0-.40234.31083-.73147.71317-.73147h2.57824c.38403 0 .71316.32913.71316.73147zm-.00669 14.30273v4.80904c0 .38404-.32913.71317-.71317.71317h-2.57824c-.40234 0-.71317-.32913-.71317-.71317v-4.80904c0-.40234.31083-.73147.71317-.73147h2.57824c.38404 0 .71317.32913.71317.73147zm42.38627 0v4.80904c0 .38404-.32913.71317-.73136.71317h-2.56004c-.40223 0-.73148-.32913-.73148-.71317v-4.80904c0-.40234.32924-.73147.73148-.73147h2.56004c.40223 0 .73136.32913.73136.73147zm0 0v4.80904c0 .38404-.32913.71317-.73136.71317h-2.56004c-.40223 0-.73148-.32913-.73148-.71317v-4.80904c0-.40234.32924-.73147.73148-.73147h2.56004c.40223 0 .73136.32913.73136.73147zm-42.38627 0v4.80904c0 .38404-.32913.71317-.71317.71317h-2.57824c-.40234 0-.71317-.32913-.71317-.71317v-4.80904c0-.40234.31083-.73147.71317-.73147h2.57824c.38404 0 .71317.32913.71317.73147zm0 0v4.80904c0 .38404-.32913.71317-.71317.71317h-2.57824c-.40234 0-.71317-.32913-.71317-.71317v-4.80904c0-.40234.31083-.73147.71317-.73147h2.57824c.38404 0 .71317.32913.71317.73147zm42.38627-14.29944v4.80915c0 .40223-.32913.71305-.73136.71305h-2.56004c-.40223 0-.73148-.31083-.73148-.71305v-4.80915c0-.40234.32924-.73147.73148-.73147h2.56004c.40223-.00001.73136.32912.73136.73147zm0 14.29944v4.80904c0 .38404-.32913.71317-.73136.71317h-2.56004c-.40223 0-.73148-.32913-.73148-.71317v-4.80904c0-.40234.32924-.73147.73148-.73147h2.56004c.40223 0 .73136.32913.73136.73147zm0-14.29944v4.80915c0 .40223-.32913.71305-.73136.71305h-2.56004c-.40223 0-.73148-.31083-.73148-.71305v-4.80915c0-.40234.32924-.73147.73148-.73147h2.56004c.40223-.00001.73136.32912.73136.73147zm0 14.29944v4.80904c0 .38404-.32913.71317-.73136.71317h-2.56004c-.40223 0-.73148-.32913-.73148-.71317v-4.80904c0-.40234.32924-.73147.73148-.73147h2.56004c.40223 0 .73136.32913.73136.73147zm-42.38627 0v4.80904c0 .38404-.32913.71317-.71317.71317h-2.57824c-.40234 0-.71317-.32913-.71317-.71317v-4.80904c0-.40234.31083-.73147.71317-.73147h2.57824c.38404 0 .71317.32913.71317.73147zm48.10971-18.83437v26.42288c0 1.97489-1.60915 3.56574-3.56574 3.56574h-10.07545v-29.98862zm-3.89487 18.83437c0-1.40804-1.15201-2.56004-2.55993-2.56004h-2.56004c-1.40804 0-2.56005 1.15201-2.56005 2.56004v4.80904c0 1.40804 1.15201 2.54174 2.56005 2.54174h2.56004c1.40792 0 2.55993-1.13371 2.55993-2.54174zm0-14.29944c0-1.40804-1.15201-2.56004-2.55993-2.56004h-2.56004c-1.40804 0-2.56005 1.15201-2.56005 2.56004v4.80915c0 1.40792 1.15201 2.54163 2.56005 2.54163h2.56004c1.40792 0 2.55993-1.13371 2.55993-2.54163zm-1.82857 14.29944v4.80904c0 .38404-.32913.71317-.73136.71317h-2.56004c-.40223 0-.73148-.32913-.73148-.71317v-4.80904c0-.40234.32924-.73147.73148-.73147h2.56004c.40223 0 .73136.32913.73136.73147zm0-14.29944v4.80915c0 .40223-.32913.71305-.73136.71305h-2.56004c-.40223 0-.73148-.31083-.73148-.71305v-4.80915c0-.40234.32924-.73147.73148-.73147h2.56004c.40223-.00001.73136.32912.73136.73147zm-52.11429-4.53493h13.62288v29.98862h-10.05714c-1.97489 0-3.56574-1.59085-3.56574-3.56574zm3.89487 9.34408c0 1.40792 1.13371 2.54163 2.54174 2.54163h2.57824c1.40804 0 2.54174-1.13371 2.54174-2.54163v-4.80915c0-1.40804-1.13371-2.56004-2.54174-2.56004h-2.57824c-1.40804 0-2.54174 1.15201-2.54174 2.56004zm0 14.29933c0 1.40804 1.13371 2.54174 2.54174 2.54174h2.57824c1.40804 0 2.54174-1.13371 2.54174-2.54174v-4.80904c0-1.40804-1.13371-2.56004-2.54174-2.56004h-2.57824c-1.40804 0-2.54174 1.15201-2.54174 2.56004zm1.82857 0v-4.80904c0-.40234.31083-.73147.71317-.73147h2.57824c.38404 0 .71317.32913.71317.73147v4.80904c0 .38404-.32913.71317-.71317.71317h-2.57824c-.40234 0-.71317-.32913-.71317-.71317zm4.00458-4.80904v4.80904c0 .38404-.32913.71317-.71317.71317h-2.57824c-.40234 0-.71317-.32913-.71317-.71317v-4.80904c0-.40234.31083-.73147.71317-.73147h2.57824c.38404 0 .71317.32913.71317.73147zm42.38627 0v4.80904c0 .38404-.32913.71317-.73136.71317h-2.56004c-.40223 0-.73148-.32913-.73148-.71317v-4.80904c0-.40234.32924-.73147.73148-.73147h2.56004c.40223 0 .73136.32913.73136.73147zm0-14.29944v4.80915c0 .40223-.32913.71305-.73136.71305h-2.56004c-.40223 0-.73148-.31083-.73148-.71305v-4.80915c0-.40234.32924-.73147.73148-.73147h2.56004c.40223-.00001.73136.32912.73136.73147zm0 14.29944v4.80904c0 .38404-.32913.71317-.73136.71317h-2.56004c-.40223 0-.73148-.32913-.73148-.71317v-4.80904c0-.40234.32924-.73147.73148-.73147h2.56004c.40223 0 .73136.32913.73136.73147zm0-14.29944v4.80915c0 .40223-.32913.71305-.73136.71305h-2.56004c-.40223 0-.73148-.31083-.73148-.71305v-4.80915c0-.40234.32924-.73147.73148-.73147h2.56004c.40223-.00001.73136.32912.73136.73147zm-42.38627 14.29944v4.80904c0 .38404-.32913.71317-.71317.71317h-2.57824c-.40234 0-.71317-.32913-.71317-.71317v-4.80904c0-.40234.31083-.73147.71317-.73147h2.57824c.38404 0 .71317.32913.71317.73147zm0 0v4.80904c0 .38404-.32913.71317-.71317.71317h-2.57824c-.40234 0-.71317-.32913-.71317-.71317v-4.80904c0-.40234.31083-.73147.71317-.73147h2.57824c.38404 0 .71317.32913.71317.73147zm0 0v4.80904c0 .38404-.32913.71317-.71317.71317h-2.57824c-.40234 0-.71317-.32913-.71317-.71317v-4.80904c0-.40234.31083-.73147.71317-.73147h2.57824c.38404 0 .71317.32913.71317.73147zm-12.81161-24.96333v2.43203c0 1.0423.84118 1.86507 1.86518 1.86507h14.84799v-6.16228h-14.84799c-1.024 0-1.86518.82288-1.86518 1.86518zm62.13493-1.86518h-14.8481v6.16228h14.8481c1.02399 0 1.86507-.82277 1.86507-1.86507v-2.43203c0-1.0423-.84107-1.86518-1.86507-1.86518zm-23.35089 7.93605c0 3.73025-3.03549 6.76574-6.78404 6.76574-3.73025 0-6.78393-3.03549-6.78393-6.76574 0-3.74855 3.05368-6.78404 6.78393-6.78404 3.74855 0 6.78404 3.03549 6.78404 6.78404zm-3.07198 0c0-.51205-.40234-.91429-.91429-.91429h-1.88348v-2.68806c0-.51194-.40223-.91429-.91429-.91429-.51194 0-.91429.40234-.91429.91429v3.60234c0 .49375.40234.91429.91429.91429h2.79777c.51194.00001.91429-.42053.91429-.91428zm3.07198 0c0 3.73025-3.03549 6.76574-6.78404 6.76574-3.73025 0-6.78393-3.03549-6.78393-6.76574 0-3.74855 3.05368-6.78404 6.78393-6.78404 3.74855 0 6.78404 3.03549 6.78404 6.78404zm-3.07198 0c0-.51205-.40234-.91429-.91429-.91429h-1.88348v-2.68806c0-.51194-.40223-.91429-.91429-.91429-.51194 0-.91429.40234-.91429.91429v3.60234c0 .49375.40234.91429.91429.91429h2.79777c.51194.00001.91429-.42053.91429-.91428zm-4.62635 18.10279v11.94062h-4.02288v-11.20915c0-.40223.31094-.73147.71317-.73147zm5.86976.73147v11.20915h-4.04118v-11.94062h3.30971c.40234 0 .73147.32924.73147.73147zm1.82857-18.83426c0 3.73025-3.03549 6.76574-6.78404 6.76574-3.73025 0-6.78393-3.03549-6.78393-6.76574 0-3.74855 3.05368-6.78404 6.78393-6.78404 3.74855 0 6.78404 3.03549 6.78404 6.78404zm-3.07198 0c0-.51205-.40234-.91429-.91429-.91429h-1.88348v-2.68806c0-.51194-.40223-.91429-.91429-.91429-.51194 0-.91429.40234-.91429.91429v3.60234c0 .49375.40234.91429.91429.91429h2.79777c.51194.00001.91429-.42053.91429-.91428zm3.07198 0c0 3.73025-3.03549 6.76574-6.78404 6.76574-3.73025 0-6.78393-3.03549-6.78393-6.76574 0-3.74855 3.05368-6.78404 6.78393-6.78404 3.74855 0 6.78404 3.03549 6.78404 6.78404zm-3.07198 0c0-.51205-.40234-.91429-.91429-.91429h-1.88348v-2.68806c0-.51194-.40223-.91429-.91429-.91429-.51194 0-.91429.40234-.91429.91429v3.60234c0 .49375.40234.91429.91429.91429h2.79777c.51194.00001.91429-.42053.91429-.91428zm9.7462-10.29487v40.33828h-6.67422v-11.20915c0-1.40804-1.15201-2.56004-2.56004-2.56004h-8.448c-1.40792 0-2.54174 1.15201-2.54174 2.56004v11.20915h-6.69252v-40.33828zm-4.84565 10.29487c0-4.75435-3.85826-8.61261-8.61261-8.61261-4.73594 0-8.6125 3.85826-8.6125 8.61261 0 4.73594 3.87656 8.59431 8.6125 8.59431 4.75435 0 8.61261-3.85837 8.61261-8.59431zm-1.82857 0c0 3.73025-3.03549 6.76574-6.78404 6.76574-3.73025 0-6.78393-3.03549-6.78393-6.76574 0-3.74855 3.05368-6.78404 6.78393-6.78404 3.74855 0 6.78404 3.03549 6.78404 6.78404zm-3.07198 0c0-.51205-.40234-.91429-.91429-.91429h-1.88348v-2.68806c0-.51194-.40223-.91429-.91429-.91429-.51194 0-.91429.40234-.91429.91429v3.60234c0 .49375.40234.91429.91429.91429h2.79777c.51194.00001.91429-.42053.91429-.91428zm3.07198 0c0 3.73025-3.03549 6.76574-6.78404 6.76574-3.73025 0-6.78393-3.03549-6.78393-6.76574 0-3.74855 3.05368-6.78404 6.78393-6.78404 3.74855 0 6.78404 3.03549 6.78404 6.78404zm-3.07198 0c0-.51205-.40234-.91429-.91429-.91429h-1.88348v-2.68806c0-.51194-.40223-.91429-.91429-.91429-.51194 0-.91429.40234-.91429.91429v3.60234c0 .49375.40234.91429.91429.91429h2.79777c.51194.00001.91429-.42053.91429-.91428zm3.07198 0c0 3.73025-3.03549 6.76574-6.78404 6.76574-3.73025 0-6.78393-3.03549-6.78393-6.76574 0-3.74855 3.05368-6.78404 6.78393-6.78404 3.74855 0 6.78404 3.03549 6.78404 6.78404zm-3.07198 0c0-.51205-.40234-.91429-.91429-.91429h-1.88348v-2.68806c0-.51194-.40223-.91429-.91429-.91429-.51194 0-.91429.40234-.91429.91429v3.60234c0 .49375.40234.91429.91429.91429h2.79777c.51194.00001.91429-.42053.91429-.91428zm1.24341 18.83426v11.20915h-4.04118v-11.94062h3.30971c.40234 0 .73147.32924.73147.73147zm-5.86976-.73147v11.94062h-4.02288v-11.20915c0-.40223.31094-.73147.71317-.73147zm15.58823-36.40391h-29.34377c-1.03081 0-1.86645.83564-1.86645 1.86645v2.44389c0 1.03081.83564 1.86645 1.86645 1.86645h29.34377c1.03081 0 1.86645-.83564 1.86645-1.86645v-2.44389c0-1.03081-.83564-1.86645-1.86645-1.86645zm-6.95731-12.18113h-6.80234c0-.51205-.40223-.91429-.91429-.91429-.51194 0-.91429.40223-.91429.91429v10.34966h1.82857v-2.59654h6.80234c1.20681 0 2.19431-.9692 2.19431-2.19431v-3.38281c.00001-1.20692-.98749-2.176-2.1943-2.176z"/></svg>