<svg fill="#00bbff" id="Layer_1" enable-background="new 0 0 512 512" viewBox="0 0 512 512" xmlns="http://www.w3.org/2000/svg"><path d="m396.22 186.08c-8.81-27.03-25.49-51.28-47.82-69.26-26.06-20.97-58.87-32.53-92.39-32.53-80.6 0-146.31 65-147.43 145.33h-9.52c-54.62 0-99.06 44.43-99.06 99.06 0 54.61 44.44 99.03 99.06 99.03h107.69 94.31 90.08c66.64 0 120.86-54.22 120.86-120.85 0-64.96-51.49-118.11-115.78-120.78zm-111.17 129.93v79.7h-62.3v-79.7c0-8.84-7.16-16-16-16h-33.54l82.8-82.8 82.79 82.8h-37.74c-8.84 0-16.01 7.16-16.01 16z"/></svg>