<svg id="Layer_2" enable-background="new 0 0 48 48" height="512" viewBox="0 0 48 48" width="512" xmlns="http://www.w3.org/2000/svg"><g><path d="m1.253 46.664c.189.214.461.336.747.336h44c.286 0 .558-.122.747-.336.19-.213.279-.497.246-.781l-4-34c-.059-.503-.486-.883-.993-.883h-18c-.552 0-1 .447-1 1v16h-17.875l1.869-15.883c.064-.549-.328-1.046-.876-1.11-.546-.066-1.045.327-1.11.876l-4 34c-.034.284.055.568.245.781zm23.747-1.664v-15h18.111l1.765 15zm0-32h16.111l1.765 15h-17.876zm-2 17v15h-19.875l1.765-15z"/><path d="m7.301 8.031c0 3.593 5.615 9.954 6.256 10.668.189.211.46.332.744.332s.555-.121.744-.332c.641-.714 6.256-7.075 6.256-10.668 0-3.859-3.14-7-7-7s-7 3.141-7 7zm12 0c0 1.906-2.816 5.884-5 8.475-2.184-2.591-5-6.568-5-8.475 0-2.757 2.243-5 5-5s5 2.243 5 5z"/><path d="m11.301 7.719c0 1.654 1.346 3 3 3s3-1.346 3-3-1.346-3-3-3-3 1.345-3 3zm4 0c0 .552-.449 1-1 1s-1-.448-1-1 .449-1 1-1 1 .448 1 1z"/></g></svg>