<?xml version="1.0" standalone="no"?>
<!DOCTYPE svg PUBLIC "-//W3C//DTD SVG 20010904//EN"
 "http://www.w3.org/TR/2001/REC-SVG-20010904/DTD/svg10.dtd">
<svg version="1.0" xmlns="http://www.w3.org/2000/svg"
 width="512.000000pt" height="512.000000pt" viewBox="0 0 512.000000 512.000000"
 preserveAspectRatio="xMidYMid meet">

<g transform="translate(0.000000,512.000000) scale(0.100000,-0.100000)"
fill="#000000" stroke="none">
<path d="M1415 4598 c-31 -17 -45 -39 -45 -74 0 -52 26 -72 140 -108 l105 -33
3 -365 2 -365 -387 -77 c-450 -90 -418 -82 -443 -109 -19 -20 -20 -37 -20
-379 l0 -358 -101 0 c-98 0 -101 -1 -130 -29 l-29 -30 2 -1055 3 -1055 23 -23
23 -23 1999 0 1999 0 23 23 23 23 3 1055 2 1055 -29 30 c-29 28 -32 29 -130
29 l-101 0 0 358 c0 344 -1 359 -20 380 -26 27 -19 26 -457 113 l-373 74 0 76
0 77 111 -35 c66 -20 121 -32 135 -29 70 18 87 122 25 155 -18 10 -240 80
-651 204 -118 36 -402 122 -630 192 -898 274 -1033 315 -1044 315 -6 0 -20 -6
-31 -12z m1052 -477 c348 -105 685 -206 748 -226 l115 -36 0 -565 0 -564 -770
0 -770 0 0 796 0 796 23 -6 c12 -3 307 -91 654 -195z m-847 -1016 l0 -375
-340 0 -340 0 2 307 3 307 330 67 c182 37 333 67 338 68 4 1 7 -168 7 -374z
m2250 300 l305 -61 3 -307 2 -307 -340 0 -340 0 0 375 0 375 33 -7 c17 -4 169
-34 337 -68z m570 -1785 l0 -940 -725 0 -725 0 0 430 0 430 100 0 c94 0 103 2
125 25 34 33 34 83 -1 116 l-26 24 -628 0 -628 0 -26 -24 c-35 -33 -35 -83 -1
-116 22 -23 31 -25 125 -25 l100 0 0 -430 0 -430 -725 0 -725 0 0 940 0 940
1880 0 1880 0 0 -940z m-1625 -510 l0 -425 -255 0 -255 0 -3 415 c-1 228 0
421 3 428 3 10 60 12 257 10 l253 -3 0 -425z"/>
<path d="M2095 3658 c-44 -25 -44 -31 -45 -331 l0 -288 25 -24 24 -25 461 0
461 0 24 25 25 24 0 288 c-1 302 -1 307 -47 331 -31 17 -899 16 -928 0z m375
-328 l0 -170 -125 0 -125 0 0 170 0 170 125 0 125 0 0 -170z m430 0 l0 -170
-125 0 -125 0 0 170 0 170 125 0 125 0 0 -170z"/>
<path d="M1072 2210 c-48 -20 -53 -59 -50 -350 l3 -268 24 -26 24 -26 292 0
292 0 24 26 24 26 0 289 c0 287 0 289 -23 311 -22 23 -26 23 -305 25 -159 1
-292 -2 -305 -7z m466 -332 l2 -168 -175 0 -175 0 0 163 c0 90 3 167 7 171 4
3 81 5 172 4 l166 -3 3 -167z"/>
<path d="M3460 2207 c-48 -24 -50 -41 -48 -339 l3 -276 24 -26 24 -26 292 0
292 0 24 26 24 26 3 268 c3 296 -2 331 -53 350 -40 15 -554 13 -585 -3z m468
-329 l2 -168 -175 0 -175 0 0 163 c0 90 3 167 7 171 4 3 81 5 172 4 l166 -3 3
-167z"/>
</g>
</svg>
