<svg enable-background="new 0 0 512 512" viewBox="0 0 512 512" xmlns="http://www.w3.org/2000/svg"><g id="_x31_8_Building"><g><path d="m246.715 402.197c.018 3.845-3.356 6.96-7.521 6.98s-7.609-3.063-7.628-6.908c-.018-3.808 3.397-6.923 7.562-6.943s7.569 3.063 7.587 6.871z" fill="rgb(0,0,0)"/><path d="m87.877 371.83v83.86" fill="none"/><path d="m60.273 450.75h435.769" fill="none"/><path d="m178.394 196.817h.035l48.158-.23c3.981-.019 7.194-3.262 7.175-7.243l-.237-50.282c-.021-4.359-3.947-7.534-7.245-7.177l-48.16.23c-3.981.019-7.194 3.262-7.175 7.243l.239 50.282c.019 3.997 3.27 7.177 7.21 7.177zm40.746-50.479.169 35.862-33.741.164-.169-35.862z"/><path d="m279.568 196.339h.035l48.158-.23c3.985-.019 7.196-3.263 7.177-7.243l-.239-50.282c-.02-4.035-3.348-7.209-7.243-7.177l-48.16.23c-3.981.019-7.194 3.263-7.175 7.243l.237 50.282c.02 3.965 3.24 7.177 7.21 7.177zm40.744-50.48.174 35.862-33.741.164-.169-35.862z"/><path d="m226.815 237.697c-.012 0-.023 0-.033 0l-48.158.225c-3.977.019-7.197 3.26-7.177 7.243l.23 48.86c.019 3.971 3.244 7.177 7.21 7.177h.033l48.161-.225c3.977-.019 7.197-3.26 7.177-7.243l-.232-48.86c-.02-3.971-3.245-7.177-7.211-7.177zm-40.754 49.053-.162-34.44 33.74-.16.162 34.44z"/><path d="m327.992 237.214c-.009 0-.024 0-.033 0l-48.163.23c-3.981.019-7.194 3.263-7.175 7.243l.232 48.86c.019 3.971 3.244 7.177 7.21 7.177h.033l48.158-.225c3.971-.019 7.197-3.255 7.177-7.243l-.23-48.864c-.019-3.987-3.262-7.178-7.209-7.178zm-40.754 49.057-.164-34.44 33.74-.164.164 34.445z"/><path d="m393.872 334.117h.033l41.767-.197c1.915-.009 3.746-.779 5.088-2.136 1.347-1.356 2.098-3.197 2.089-5.107l-.225-47.259c-.019-3.971-3.244-7.177-7.21-7.177-.009 0-.024 0-.033 0l-41.767.197c-1.915.009-3.746.779-5.088 2.136-1.347 1.356-2.098 3.197-2.089 5.107l.225 47.259c.019 3.971 3.243 7.177 7.21 7.177zm34.365-47.423.16 32.839-27.347.131-.16-32.839z"/><path d="m435.836 368.186-41.767.197c-3.985.019-7.196 3.262-7.177 7.243l.221 47.259c.019 3.961 3.239 7.177 7.21 7.177h.033l41.772-.197c3.973-.019 7.197-3.255 7.177-7.243l-.225-47.259c-.019-3.98-3.207-7.304-7.244-7.177zm-34.336 47.424-.155-32.839 27.347-.131.16 32.839z"/><path d="m85.65 380.985v61.918h-25.101c-3.961 0-7.178 3.218-7.178 7.228 0 3.961 3.218 7.228 7.178 7.228h25.497 14.06 396.216c3.961 0 7.228-3.267 7.228-7.228 0-4.01-3.268-7.228-7.228-7.228h-22.768l-.884-186.509c-.028-5.975-2.38-11.585-6.628-15.79-4.243-4.206-9.975-6.426-15.847-6.473l-79.708.375-.649-136.797c8.62-1.151 15.295-8.495 15.26-17.428l-.042-8.135c-.039-9.698-7.909-17.504-17.569-17.504-.033 0-.061 0-.089 0l-226.594 1.075c-9.693.047-17.542 7.97-17.494 17.659l.037 8.149c.023 4.694 1.873 9.097 5.208 12.402 3.314 3.286 7.703 5.093 12.366 5.093h.089l1.602-.008.74 156.049c-24.949-57.128-110.561-33.677-103.859 27.522-18.792 8.876-31.044 27.91-31.044 49.118 0 39.437 41.044 66.02 77.201 49.284zm14.853.023c13.47 6.212 29.119 6.845 43.452.95l.289 60.945h-43.74v-61.895zm57.435-91.077-.904-190.974 198.385-.943.683 143.747c0 .007-.002.014-.002.021l.952 200.157-52.23.248-.44-92.03c-.051-10.37-8.772-18.161-18.058-17.894l-57.976.272c-9.911.047-17.938 8.149-17.891 18.063l.438 92.036-52.231.248-.33-69.655c11.832-9.976 19.376-24.88 19.376-41.527-.002-16.436-7.565-31.616-19.772-41.769zm66.938 60.601c-.009-1.962 1.579-3.567 3.539-3.577l57.974-.272h.019c1.974 0 3.546 1.597 3.553 3.539l.441 92.033-65.089.309zm225.39-101.982c2.131-.075 4.121.807 5.633 2.3 1.507 1.493 2.342 3.488 2.352 5.609l.878 184.986-87.656.418-.233-48.924-.683-144.013zm-309.326-163.952c-.005 0-.011 0-.016 0-1.729 0-3.149-1.403-3.157-3.145l-.037-8.149c-.007-1.739 1.392-3.161 3.145-3.169l226.594-1.075h.014c1.72 0 3.147 1.392 3.154 3.14v.009l.042 8.135c.007 1.736-1.383 3.171-3.145 3.178zm-118.07 247.102c0-17.114 10.845-32.3 26.988-37.782 3.487-1.183 5.522-4.807 4.715-8.402-5.59-24.937 13.366-48.733 38.944-48.733 22.031 0 39.953 17.922 39.953 39.955 0 3.084-.345 6.102-1.023 8.975-.843 3.563 1.112 7.187 4.551 8.435 15.725 5.722 26.291 20.813 26.291 37.552 0 33.924-39.817 52.191-65.615 30.624-2.709-2.268-6.612-2.213-9.252 0-25.76 21.541-65.552 3.339-65.552-30.624z"/></g></g><g id="Layer_1"/></svg>