<svg id="Capa_1" enable-background="new 0 0 512 512" height="512" viewBox="0 0 512 512" width="512" xmlns="http://www.w3.org/2000/svg"><g><path d="m424 0h-57v78c0 8.284-6.716 15-15 15h-26.609c-6.905 31.968-35.388 56-69.391 56s-62.486-24.032-69.391-56h-26.609c-8.284 0-15-6.716-15-15v-78h-57c-8.284 0-15 6.716-15 15v226h113.609c6.905-31.968 35.388-56 69.391-56s62.486 24.032 69.391 56h113.609v-226c0-8.284-6.716-15-15-15z"/><path d="m256 215c-17.314 0-32.145 10.793-38.146 26h76.291c-6-15.207-20.831-26-38.145-26z"/><path d="m175 0h162v63h-162z"/><path d="m256 119c17.314 0 32.145-10.793 38.146-26h-76.291c6 15.207 20.831 26 38.145 26z"/><path d="m256 297c17.314 0 32.145-10.793 38.146-26h-76.291c6 15.207 20.831 26 38.145 26z"/><path d="m256 327c-34.003 0-62.486-24.032-69.391-56h-113.609v226c0 8.284 6.716 15 15 15h57v-78c0-8.284 6.716-15 15-15h26.609c6.905-31.968 35.388-56 69.391-56s62.486 24.032 69.391 56h26.609c8.284 0 15 6.716 15 15v78h57c8.284 0 15-6.716 15-15v-226h-113.609c-6.905 31.968-35.388 56-69.391 56z"/><path d="m175 449h162v63h-162z"/><path d="m256 393c-17.314 0-32.145 10.793-38.146 26h76.291c-6-15.207-20.831-26-38.145-26z"/></g></svg>