<svg id="Layer_1" enable-background="new 0 0 500 500" viewBox="0 0 500 500" xmlns="http://www.w3.org/2000/svg"><g><path d="m260.152 475h-187.246c-4.069 0-7.367-3.298-7.367-7.367v-435.268c0-2.44 1.208-4.722 3.228-6.095 2.017-1.373 4.584-1.649 6.855-.751l187.247 74.309c2.809 1.113 4.65 3.827 4.65 6.845v360.959c0 4.07-3.298 7.368-7.367 7.368zm-179.881-14.734h172.515v-348.591l-172.515-68.461z"/><path d="m120.282 125.238c-4.068 0-7.367-3.298-7.367-7.367v-20.069c0-4.068 3.299-7.367 7.367-7.367 4.069 0 7.367 3.298 7.367 7.367v20.069c0 4.069-3.298 7.367-7.367 7.367z"/><path d="m120.282 178.753c-4.068 0-7.367-3.298-7.367-7.367v-20.069c0-4.068 3.299-7.367 7.367-7.367 4.069 0 7.367 3.299 7.367 7.367v20.069c0 4.07-3.298 7.367-7.367 7.367z"/><path d="m120.282 232.269c-4.068 0-7.367-3.298-7.367-7.367v-20.069c0-4.069 3.299-7.367 7.367-7.367 4.069 0 7.367 3.298 7.367 7.367v20.069c0 4.069-3.298 7.367-7.367 7.367z"/><path d="m120.282 285.784c-4.068 0-7.367-3.298-7.367-7.367v-20.069c0-4.069 3.299-7.367 7.367-7.367 4.069 0 7.367 3.298 7.367 7.367v20.069c0 4.069-3.298 7.367-7.367 7.367z"/><path d="m120.282 339.299c-4.068 0-7.367-3.298-7.367-7.367v-20.066c0-4.069 3.299-7.367 7.367-7.367 4.069 0 7.367 3.298 7.367 7.367v20.066c0 4.07-3.298 7.367-7.367 7.367z"/><path d="m120.282 392.817c-4.068 0-7.367-3.298-7.367-7.367v-20.069c0-4.069 3.299-7.367 7.367-7.367 4.069 0 7.367 3.298 7.367 7.367v20.069c0 4.07-3.298 7.367-7.367 7.367z"/><path d="m120.282 446.333c-4.068 0-7.367-3.298-7.367-7.367v-20.069c0-4.069 3.299-7.367 7.367-7.367 4.069 0 7.367 3.298 7.367 7.367v20.069c0 4.069-3.298 7.367-7.367 7.367z"/><path d="m166.529 125.238c-4.069 0-7.367-3.298-7.367-7.367v-20.069c0-4.068 3.298-7.367 7.367-7.367s7.367 3.298 7.367 7.367v20.069c0 4.069-3.298 7.367-7.367 7.367z"/><path d="m166.529 178.753c-4.069 0-7.367-3.298-7.367-7.367v-20.069c0-4.068 3.298-7.367 7.367-7.367s7.367 3.299 7.367 7.367v20.069c0 4.07-3.298 7.367-7.367 7.367z"/><path d="m166.529 232.269c-4.069 0-7.367-3.298-7.367-7.367v-20.069c0-4.069 3.298-7.367 7.367-7.367s7.367 3.298 7.367 7.367v20.069c0 4.069-3.298 7.367-7.367 7.367z"/><path d="m166.529 285.784c-4.069 0-7.367-3.298-7.367-7.367v-20.069c0-4.069 3.298-7.367 7.367-7.367s7.367 3.298 7.367 7.367v20.069c0 4.069-3.298 7.367-7.367 7.367z"/><path d="m166.529 339.299c-4.069 0-7.367-3.298-7.367-7.367v-20.066c0-4.069 3.298-7.367 7.367-7.367s7.367 3.298 7.367 7.367v20.066c0 4.07-3.298 7.367-7.367 7.367z"/><path d="m166.529 392.817c-4.069 0-7.367-3.298-7.367-7.367v-20.069c0-4.069 3.298-7.367 7.367-7.367s7.367 3.298 7.367 7.367v20.069c0 4.07-3.298 7.367-7.367 7.367z"/><path d="m166.529 446.333c-4.069 0-7.367-3.298-7.367-7.367v-20.069c0-4.069 3.298-7.367 7.367-7.367s7.367 3.298 7.367 7.367v20.069c0 4.069-3.298 7.367-7.367 7.367z"/><path d="m212.798 125.218c-1.946 0-3.83-.768-5.246-2.124-1.355-1.413-2.121-3.3-2.121-5.243 0-1.887.765-3.833 2.121-5.188 2.771-2.71 7.663-2.768 10.432 0 1.355 1.355 2.181 3.301 2.181 5.188 0 1.943-.826 3.83-2.181 5.243-1.356 1.356-3.241 2.124-5.186 2.124z"/><path d="m212.778 178.753c-4.069 0-7.367-3.298-7.367-7.367v-20.069c0-4.068 3.298-7.367 7.367-7.367s7.367 3.299 7.367 7.367v20.069c0 4.07-3.298 7.367-7.367 7.367z"/><path d="m212.778 232.269c-4.069 0-7.367-3.298-7.367-7.367v-20.069c0-4.069 3.298-7.367 7.367-7.367s7.367 3.298 7.367 7.367v20.069c0 4.069-3.298 7.367-7.367 7.367z"/><path d="m212.778 285.784c-4.069 0-7.367-3.298-7.367-7.367v-20.069c0-4.069 3.298-7.367 7.367-7.367s7.367 3.298 7.367 7.367v20.069c0 4.069-3.298 7.367-7.367 7.367z"/><path d="m212.778 339.299c-4.069 0-7.367-3.298-7.367-7.367v-20.066c0-4.069 3.298-7.367 7.367-7.367s7.367 3.298 7.367 7.367v20.066c0 4.07-3.298 7.367-7.367 7.367z"/><path d="m212.778 392.817c-4.069 0-7.367-3.298-7.367-7.367v-20.069c0-4.069 3.298-7.367 7.367-7.367s7.367 3.298 7.367 7.367v20.069c0 4.07-3.298 7.367-7.367 7.367z"/><path d="m212.778 446.333c-4.069 0-7.367-3.298-7.367-7.367v-20.069c0-4.069 3.298-7.367 7.367-7.367s7.367 3.298 7.367 7.367v20.069c0 4.069-3.298 7.367-7.367 7.367z"/><path d="m451.91 475h-403.819c-4.069 0-7.367-3.298-7.367-7.367s3.298-7.367 7.367-7.367h403.819c4.068 0 7.366 3.298 7.366 7.367s-3.298 7.367-7.366 7.367z"/><path d="m422.583 475c-4.069 0-7.367-3.298-7.367-7.367v-287.764c0-4.068 3.298-7.367 7.367-7.367 4.068 0 7.367 3.298 7.367 7.367v287.764c0 4.069-3.298 7.367-7.367 7.367z"/><path d="m382.257 475c-4.069 0-7.367-3.298-7.367-7.367v-287.764c0-4.068 3.298-7.367 7.367-7.367 4.068 0 7.366 3.298 7.366 7.367v287.764c-.001 4.069-3.298 7.367-7.366 7.367z"/><path d="m341.932 475c-4.069 0-7.367-3.298-7.367-7.367v-287.764c0-4.068 3.298-7.367 7.367-7.367 4.068 0 7.366 3.298 7.366 7.367v287.764c0 4.069-3.297 7.367-7.366 7.367z"/><path d="m301.604 475c-4.068 0-7.367-3.298-7.367-7.367v-287.764c0-4.068 3.299-7.367 7.367-7.367 4.069 0 7.367 3.298 7.367 7.367v287.764c0 4.069-3.297 7.367-7.367 7.367z"/><path d="m451.91 222.235h-191.758c-4.068 0-7.366-3.299-7.366-7.367 0-4.069 3.298-7.367 7.366-7.367h191.758c4.068 0 7.366 3.298 7.366 7.367 0 4.068-3.298 7.367-7.366 7.367z"/><path d="m301.604 285.784h-41.452c-4.068 0-7.366-3.298-7.366-7.367s3.298-7.367 7.366-7.367h41.452c4.069 0 7.367 3.298 7.367 7.367s-3.297 7.367-7.367 7.367z"/><path d="m451.91 285.784h-69.653c-4.069 0-7.367-3.298-7.367-7.367s3.298-7.367 7.367-7.367h69.653c4.068 0 7.366 3.298 7.366 7.367s-3.298 7.367-7.366 7.367z"/><path d="m382.257 349.333h-122.105c-4.068 0-7.366-3.298-7.366-7.367 0-4.068 3.298-7.366 7.366-7.366h122.104c4.068 0 7.366 3.298 7.366 7.366 0 4.069-3.297 7.367-7.365 7.367z"/><path d="m451.91 349.333h-29.326c-4.069 0-7.367-3.298-7.367-7.367 0-4.068 3.298-7.366 7.367-7.366h29.326c4.068 0 7.366 3.298 7.366 7.366 0 4.069-3.298 7.367-7.366 7.367z"/><path d="m451.91 412.883h-150.306c-4.068 0-7.367-3.298-7.367-7.367s3.299-7.367 7.367-7.367h150.306c4.068 0 7.366 3.298 7.366 7.367 0 4.07-3.298 7.367-7.366 7.367z"/></g></svg>